<svg xmlns="http://www.w3.org/2000/svg" viewBox="0 0 1080 1080"><defs><style>.cls-1{fill:#fff;}</style></defs><title>logo</title><g id="Layer_2" data-name="Layer 2"><g id="Logo-2" data-name="Logo"><path class="cls-1" d="M535.73,498.5H335.57v-61H596.75A61,61,0,0,1,535.73,498.5Z"/><path class="cls-1" d="M450.29,583.94H335.57v-61H511.32A61,61,0,0,1,450.29,583.94Z"/><path class="cls-1" d="M627.27,353.27H266a61,61,0,0,0,61,61H627.27A125.84,125.84,0,0,1,753,540.73c-.39,69.37-57.72,125-127.09,125H395.37V609h-61v56.75H327a61,61,0,0,0-61,61H625.46c103.22,0,188.25-83,188.54-186.2S730.41,353.27,627.27,353.27Z"/></g></g></svg>