<?xml version="1.0" standalone="no"?><svg xmlns="http://www.w3.org/2000/svg" viewBox="0 0 1440 320"><path fill="#8c0000" fill-opacity="1" d="M0,320L21.8,309.3C43.6,299,87,277,131,272C174.5,267,218,277,262,277.3C305.5,277,349,267,393,218.7C436.4,171,480,85,524,64C567.3,43,611,85,655,138.7C698.2,192,742,256,785,250.7C829.1,245,873,171,916,165.3C960,160,1004,224,1047,256C1090.9,288,1135,288,1178,261.3C1221.8,235,1265,181,1309,160C1352.7,139,1396,149,1418,154.7L1440,160L1440,320L1418.2,320C1396.4,320,1353,320,1309,320C1265.5,320,1222,320,1178,320C1134.5,320,1091,320,1047,320C1003.6,320,960,320,916,320C872.7,320,829,320,785,320C741.8,320,698,320,655,320C610.9,320,567,320,524,320C480,320,436,320,393,320C349.1,320,305,320,262,320C218.2,320,175,320,131,320C87.3,320,44,320,22,320L0,320Z"></path></svg>