<?xml version="1.0" standalone="no"?><svg xmlns="http://www.w3.org/2000/svg" viewBox="0 0 1440 320"><path fill="#5000ca" fill-opacity="1" d="M0,0L24,21.3C48,43,96,85,144,122.7C192,160,240,192,288,197.3C336,203,384,181,432,186.7C480,192,528,224,576,245.3C624,267,672,277,720,250.7C768,224,816,160,864,154.7C912,149,960,203,1008,197.3C1056,192,1104,128,1152,106.7C1200,85,1248,107,1296,128C1344,149,1392,171,1416,181.3L1440,192L1440,320L1416,320C1392,320,1344,320,1296,320C1248,320,1200,320,1152,320C1104,320,1056,320,1008,320C960,320,912,320,864,320C816,320,768,320,720,320C672,320,624,320,576,320C528,320,480,320,432,320C384,320,336,320,288,320C240,320,192,320,144,320C96,320,48,320,24,320L0,320Z"></path></svg>